<svg xmlns="http://www.w3.org/2000/svg" xmlns:xlink="http://www.w3.org/1999/xlink" width="2000" zoomAndPan="magnify" viewBox="0 0 1500 1499.999933" height="2000" preserveAspectRatio="xMidYMid meet" version="1.0"><defs><g/><clipPath id="707860cf05"><rect x="0" width="658" y="0" height="1288"/></clipPath><clipPath id="fc8d846843"><rect x="0" width="660" y="0" height="1293"/></clipPath><clipPath id="9097f8d7a4"><path d="M 627.257812 598.503906 L 870.839844 598.503906 L 870.839844 961.019531 L 627.257812 961.019531 Z M 627.257812 598.503906 " clip-rule="nonzero"/></clipPath><clipPath id="a7fc4e6c99"><path d="M 627.257812 958.019531 L 627.257812 601.6875 C 627.257812 600.027344 628.597656 598.6875 630.257812 598.6875 L 867.839844 598.6875 C 869.496094 598.6875 870.839844 600.027344 870.839844 601.6875 L 870.839844 958.019531 C 870.839844 959.675781 869.496094 961.019531 867.839844 961.019531 L 630.257812 961.019531 C 628.597656 961.019531 627.257812 959.675781 627.257812 958.019531 Z M 627.257812 958.019531 " clip-rule="nonzero"/></clipPath><clipPath id="7351b631ad"><path d="M 0.257812 0.558594 L 243.839844 0.558594 L 243.839844 363.019531 L 0.257812 363.019531 Z M 0.257812 0.558594 " clip-rule="nonzero"/></clipPath><clipPath id="3cf6e491d6"><path d="M 0.257812 360.019531 L 0.257812 3.6875 C 0.257812 2.027344 1.597656 0.6875 3.257812 0.6875 L 240.839844 0.6875 C 242.496094 0.6875 243.839844 2.027344 243.839844 3.6875 L 243.839844 360.019531 C 243.839844 361.675781 242.496094 363.019531 240.839844 363.019531 L 3.257812 363.019531 C 1.597656 363.019531 0.257812 361.675781 0.257812 360.019531 Z M 0.257812 360.019531 " clip-rule="nonzero"/></clipPath><clipPath id="b16d022870"><rect x="0" width="244" y="0" height="364"/></clipPath><clipPath id="28324874f1"><path d="M 578.164062 452.3125 L 690.734375 452.3125 L 690.734375 1105.554688 L 578.164062 1105.554688 Z M 578.164062 452.3125 " clip-rule="nonzero"/></clipPath><clipPath id="4babf414c9"><path d="M 0.164062 0.3125 L 112.734375 0.3125 L 112.734375 653.554688 L 0.164062 653.554688 Z M 0.164062 0.3125 " clip-rule="nonzero"/></clipPath><clipPath id="03ed0e637a"><rect x="0" width="113" y="0" height="654"/></clipPath><clipPath id="e0f5858a8f"><path d="M 842.417969 664.265625 L 926.230469 664.265625 L 926.230469 923 L 842.417969 923 Z M 842.417969 664.265625 " clip-rule="nonzero"/></clipPath><clipPath id="cd890cc99c"><path d="M 902.625 694.523438 C 901.800781 840.324219 903.449219 880.371094 902.777344 892.898438 C 902.550781 896.574219 902.476562 897.699219 901.875 900.023438 C 901.277344 902.347656 900.449219 904.671875 899.324219 906.847656 C 898.199219 908.949219 896.777344 910.972656 895.199219 912.773438 C 893.625 914.574219 891.75 916.222656 889.800781 917.574219 C 887.777344 918.996094 885.601562 920.121094 883.351562 920.949219 C 881.101562 921.847656 878.699219 922.449219 876.300781 922.671875 C 873.902344 922.972656 871.425781 922.972656 869.101562 922.671875 C 866.699219 922.449219 864.300781 921.847656 862.050781 920.949219 C 859.800781 920.121094 857.550781 918.996094 855.601562 917.574219 C 853.652344 916.222656 851.777344 914.574219 850.199219 912.773438 C 848.625 910.972656 847.199219 908.949219 846.074219 906.847656 C 844.949219 904.671875 844.050781 902.347656 843.527344 900.023438 C 842.925781 897.699219 842.699219 896.273438 842.625 892.824219 C 842.476562 884.199219 844.5 862.074219 846.449219 847.222656 C 848.402344 832.746094 852 818.949219 854.324219 804.699219 C 856.652344 790.449219 859.050781 775.371094 860.476562 761.574219 C 861.75 749.121094 861.527344 733.824219 862.726562 725.648438 C 863.402344 721.222656 863.777344 718.746094 865.050781 715.597656 C 866.324219 712.523438 868.277344 709.449219 870.449219 706.898438 C 872.699219 704.347656 875.476562 702.097656 878.324219 700.371094 C 881.25 698.648438 884.625 697.371094 887.925781 696.699219 C 891.226562 696.023438 894.824219 695.796875 898.199219 696.246094 C 901.5 696.621094 904.949219 697.671875 908.027344 699.097656 C 911.027344 700.523438 914.027344 702.621094 916.425781 704.949219 C 918.824219 707.273438 921 710.199219 922.574219 713.199219 C 924.074219 716.199219 925.199219 719.574219 925.726562 722.949219 C 926.175781 726.246094 926.175781 729.847656 925.574219 733.222656 C 924.976562 736.523438 923.777344 739.898438 922.199219 742.898438 C 920.550781 745.824219 918.375 748.671875 915.902344 750.996094 C 913.425781 753.246094 910.425781 755.199219 907.351562 756.621094 C 904.277344 757.972656 900.75 758.949219 897.449219 759.246094 C 894.074219 759.546875 890.476562 759.324219 887.175781 758.574219 C 883.875 757.824219 880.574219 756.398438 877.726562 754.671875 C 874.875 752.871094 872.101562 750.546875 870 747.921875 C 867.824219 745.296875 866.027344 742.222656 864.824219 739.074219 C 863.625 735.921875 862.875 732.398438 862.726562 729.023438 C 862.574219 725.648438 863.027344 722.121094 863.925781 718.824219 C 864.902344 715.597656 866.402344 712.371094 868.351562 709.597656 C 870.300781 706.824219 872.777344 704.273438 875.476562 702.246094 C 878.175781 700.222656 881.402344 698.574219 884.625 697.523438 C 887.851562 696.546875 891.375 695.949219 894.75 696.023438 C 898.125 696.023438 901.652344 696.699219 904.875 697.824219 C 908.027344 698.871094 911.175781 700.597656 913.875 702.699219 C 916.5 704.796875 918.976562 707.421875 920.851562 710.199219 C 922.652344 713.046875 924.152344 716.347656 924.976562 719.574219 C 925.875 722.871094 925.949219 725.273438 926.027344 729.773438 C 926.027344 738.699219 924 755.949219 922.351562 769.671875 C 920.550781 784.523438 918 800.871094 915.449219 815.871094 C 912.976562 830.199219 909.449219 843.773438 907.199219 857.796875 C 904.949219 871.824219 903.902344 892.074219 901.875 900.023438 C 901.050781 903.324219 900.449219 904.671875 899.324219 906.847656 C 898.199219 908.949219 896.777344 910.972656 895.199219 912.773438 C 893.625 914.574219 891.75 916.222656 889.800781 917.574219 C 887.777344 918.996094 885.601562 920.121094 883.351562 920.949219 C 881.101562 921.847656 878.699219 922.449219 876.300781 922.671875 C 873.902344 922.972656 871.425781 922.972656 869.101562 922.671875 C 866.699219 922.449219 864.300781 921.847656 862.050781 920.949219 C 859.800781 920.121094 857.625 918.996094 855.601562 917.574219 C 853.652344 916.222656 851.777344 914.574219 850.199219 912.773438 C 848.625 910.972656 847.199219 908.949219 846.074219 906.847656 C 844.949219 904.671875 844.050781 902.347656 843.527344 900.023438 C 842.925781 897.699219 842.851562 896.574219 842.625 892.898438 C 841.949219 880.371094 843.601562 840.324219 843.675781 810.472656 C 843.75 775.148438 841.875 709.898438 842.777344 694.523438 C 843 690.699219 843.074219 689.648438 843.601562 687.398438 C 844.199219 685.074219 845.101562 682.746094 846.152344 680.648438 C 847.277344 678.472656 848.699219 676.449219 850.277344 674.648438 C 851.851562 672.847656 853.726562 671.273438 855.675781 669.847656 C 857.625 668.496094 859.875 667.371094 862.050781 666.546875 C 864.300781 665.648438 866.699219 665.121094 869.101562 664.824219 C 871.425781 664.523438 873.902344 664.523438 876.300781 664.824219 C 878.699219 665.121094 881.101562 665.648438 883.277344 666.546875 C 885.527344 667.371094 887.699219 668.496094 889.726562 669.921875 C 891.675781 671.273438 893.550781 672.921875 895.125 674.648438 C 896.699219 676.449219 898.125 678.472656 899.175781 680.648438 C 900.300781 682.746094 901.199219 685.074219 901.800781 687.398438 C 902.324219 689.648438 902.625 694.523438 902.625 694.523438 " clip-rule="nonzero"/></clipPath><clipPath id="7571454285"><path d="M 0.417969 0.320312 L 84.230469 0.320312 L 84.230469 259 L 0.417969 259 Z M 0.417969 0.320312 " clip-rule="nonzero"/></clipPath><clipPath id="3987affa72"><path d="M 60.625 30.523438 C 59.800781 176.324219 61.449219 216.371094 60.777344 228.898438 C 60.550781 232.574219 60.476562 233.699219 59.875 236.023438 C 59.277344 238.347656 58.449219 240.671875 57.324219 242.847656 C 56.199219 244.949219 54.777344 246.972656 53.199219 248.773438 C 51.625 250.574219 49.75 252.222656 47.800781 253.574219 C 45.777344 254.996094 43.601562 256.121094 41.351562 256.949219 C 39.101562 257.847656 36.699219 258.449219 34.300781 258.671875 C 31.902344 258.972656 29.425781 258.972656 27.101562 258.671875 C 24.699219 258.449219 22.300781 257.847656 20.050781 256.949219 C 17.800781 256.121094 15.550781 254.996094 13.601562 253.574219 C 11.652344 252.222656 9.777344 250.574219 8.199219 248.773438 C 6.625 246.972656 5.199219 244.949219 4.074219 242.847656 C 2.949219 240.671875 2.050781 238.347656 1.527344 236.023438 C 0.925781 233.699219 0.699219 232.273438 0.625 228.824219 C 0.476562 220.199219 2.5 198.074219 4.449219 183.222656 C 6.402344 168.746094 10 154.949219 12.324219 140.699219 C 14.652344 126.449219 17.050781 111.371094 18.476562 97.574219 C 19.75 85.121094 19.527344 69.824219 20.726562 61.648438 C 21.402344 57.222656 21.777344 54.746094 23.050781 51.597656 C 24.324219 48.523438 26.277344 45.449219 28.449219 42.898438 C 30.699219 40.347656 33.476562 38.097656 36.324219 36.371094 C 39.25 34.648438 42.625 33.371094 45.925781 32.699219 C 49.226562 32.023438 52.824219 31.796875 56.199219 32.246094 C 59.5 32.621094 62.949219 33.671875 66.027344 35.097656 C 69.027344 36.523438 72.027344 38.621094 74.425781 40.949219 C 76.824219 43.273438 79 46.199219 80.574219 49.199219 C 82.074219 52.199219 83.199219 55.574219 83.726562 58.949219 C 84.175781 62.246094 84.175781 65.847656 83.574219 69.222656 C 82.976562 72.523438 81.777344 75.898438 80.199219 78.898438 C 78.550781 81.824219 76.375 84.671875 73.902344 86.996094 C 71.425781 89.246094 68.425781 91.199219 65.351562 92.621094 C 62.277344 93.972656 58.75 94.949219 55.449219 95.246094 C 52.074219 95.546875 48.476562 95.324219 45.175781 94.574219 C 41.875 93.824219 38.574219 92.398438 35.726562 90.671875 C 32.875 88.871094 30.101562 86.546875 28 83.921875 C 25.824219 81.296875 24.027344 78.222656 22.824219 75.074219 C 21.625 71.921875 20.875 68.398438 20.726562 65.023438 C 20.574219 61.648438 21.027344 58.121094 21.925781 54.824219 C 22.902344 51.597656 24.402344 48.371094 26.351562 45.597656 C 28.300781 42.824219 30.777344 40.273438 33.476562 38.246094 C 36.175781 36.222656 39.402344 34.574219 42.625 33.523438 C 45.851562 32.546875 49.375 31.949219 52.75 32.023438 C 56.125 32.023438 59.652344 32.699219 62.875 33.824219 C 66.027344 34.871094 69.175781 36.597656 71.875 38.699219 C 74.5 40.796875 76.976562 43.421875 78.851562 46.199219 C 80.652344 49.046875 82.152344 52.347656 82.976562 55.574219 C 83.875 58.871094 83.949219 61.273438 84.027344 65.773438 C 84.027344 74.699219 82 91.949219 80.351562 105.671875 C 78.550781 120.523438 76 136.871094 73.449219 151.871094 C 70.976562 166.199219 67.449219 179.773438 65.199219 193.796875 C 62.949219 207.824219 61.902344 228.074219 59.875 236.023438 C 59.050781 239.324219 58.449219 240.671875 57.324219 242.847656 C 56.199219 244.949219 54.777344 246.972656 53.199219 248.773438 C 51.625 250.574219 49.75 252.222656 47.800781 253.574219 C 45.777344 254.996094 43.601562 256.121094 41.351562 256.949219 C 39.101562 257.847656 36.699219 258.449219 34.300781 258.671875 C 31.902344 258.972656 29.425781 258.972656 27.101562 258.671875 C 24.699219 258.449219 22.300781 257.847656 20.050781 256.949219 C 17.800781 256.121094 15.625 254.996094 13.601562 253.574219 C 11.652344 252.222656 9.777344 250.574219 8.199219 248.773438 C 6.625 246.972656 5.199219 244.949219 4.074219 242.847656 C 2.949219 240.671875 2.050781 238.347656 1.527344 236.023438 C 0.925781 233.699219 0.851562 232.574219 0.625 228.898438 C -0.0507812 216.371094 1.601562 176.324219 1.675781 146.472656 C 1.75 111.148438 -0.125 45.898438 0.777344 30.523438 C 1 26.699219 1.074219 25.648438 1.601562 23.398438 C 2.199219 21.074219 3.101562 18.746094 4.152344 16.648438 C 5.277344 14.472656 6.699219 12.449219 8.277344 10.648438 C 9.851562 8.847656 11.726562 7.273438 13.675781 5.847656 C 15.625 4.496094 17.875 3.371094 20.050781 2.546875 C 22.300781 1.648438 24.699219 1.121094 27.101562 0.824219 C 29.425781 0.523438 31.902344 0.523438 34.300781 0.824219 C 36.699219 1.121094 39.101562 1.648438 41.277344 2.546875 C 43.527344 3.371094 45.699219 4.496094 47.726562 5.921875 C 49.675781 7.273438 51.550781 8.921875 53.125 10.648438 C 54.699219 12.449219 56.125 14.472656 57.175781 16.648438 C 58.300781 18.746094 59.199219 21.074219 59.800781 23.398438 C 60.324219 25.648438 60.625 30.523438 60.625 30.523438 " clip-rule="nonzero"/></clipPath><clipPath id="60b5355e7d"><rect x="0" width="85" y="0" height="259"/></clipPath><clipPath id="0b336cbe95"><path d="M 845.6875 636.308594 L 906 636.308594 L 906 696.636719 L 845.6875 696.636719 Z M 845.6875 636.308594 " clip-rule="nonzero"/></clipPath><clipPath id="fdf5a714c2"><path d="M 845.851562 666.398438 C 848.476562 653.796875 850.050781 650.796875 852 648.246094 C 853.875 645.699219 856.351562 643.371094 859.050781 641.574219 C 861.675781 639.773438 864.75 638.347656 867.824219 637.523438 C 870.902344 636.621094 874.277344 636.246094 877.5 636.472656 C 880.652344 636.621094 884.027344 637.371094 886.949219 638.496094 C 889.949219 639.699219 892.875 641.496094 895.277344 643.523438 C 897.75 645.621094 899.925781 648.171875 901.574219 650.949219 C 903.226562 653.648438 904.5 656.871094 905.175781 659.949219 C 905.851562 663.097656 906.074219 666.472656 905.699219 669.699219 C 905.324219 672.847656 904.425781 676.148438 903.074219 678.996094 C 901.726562 681.921875 899.851562 684.699219 897.675781 687.023438 C 895.425781 689.347656 892.726562 691.449219 889.949219 692.949219 C 887.101562 694.449219 883.875 695.496094 880.726562 696.023438 C 877.574219 696.546875 874.125 696.546875 870.976562 696.023438 C 867.824219 695.496094 864.601562 694.449219 861.824219 692.949219 C 858.976562 691.449219 856.277344 689.347656 854.101562 687.023438 C 851.851562 684.699219 849.976562 681.921875 848.625 678.996094 C 847.277344 676.074219 846.375 672.847656 846 669.621094 C 845.699219 666.472656 845.851562 663.097656 846.527344 659.949219 C 847.277344 656.871094 848.476562 653.648438 850.125 650.949219 C 851.777344 648.171875 854.027344 645.621094 856.425781 643.523438 C 858.902344 641.496094 861.824219 639.699219 864.75 638.496094 C 867.75 637.371094 871.050781 636.621094 874.277344 636.472656 C 877.425781 636.246094 880.800781 636.621094 883.875 637.523438 C 886.949219 638.347656 890.101562 639.773438 892.726562 641.574219 C 895.351562 643.371094 897.824219 645.699219 899.777344 648.246094 C 901.726562 650.796875 903.300781 653.796875 904.277344 656.871094 C 905.324219 659.871094 905.777344 663.472656 905.851562 666.398438 C 905.925781 668.949219 905.625 671.273438 905.027344 673.597656 C 904.5 675.921875 903.601562 678.246094 902.550781 680.347656 C 901.425781 682.523438 900 684.546875 898.425781 686.347656 C 896.851562 688.148438 895.050781 689.796875 893.101562 691.222656 C 891.074219 692.574219 888.902344 693.699219 886.726562 694.597656 C 884.476562 695.496094 882.074219 696.097656 879.675781 696.398438 C 877.277344 696.699219 874.800781 696.699219 872.476562 696.398438 C 870.074219 696.171875 867.675781 695.574219 865.425781 694.746094 C 863.175781 693.921875 860.925781 692.722656 858.976562 691.449219 C 857.027344 690.097656 855.152344 688.449219 853.5 686.648438 C 851.925781 684.847656 850.5 682.824219 849.375 680.722656 C 848.25 678.621094 847.351562 676.296875 846.75 673.972656 C 846.152344 671.648438 845.851562 666.773438 845.851562 666.773438 " clip-rule="nonzero"/></clipPath><clipPath id="19e99f31c8"><path d="M 0.6875 0.308594 L 61 0.308594 L 61 60.636719 L 0.6875 60.636719 Z M 0.6875 0.308594 " clip-rule="nonzero"/></clipPath><clipPath id="7c0d31c619"><path d="M 0.851562 30.398438 C 3.476562 17.796875 5.050781 14.796875 7 12.246094 C 8.875 9.699219 11.351562 7.371094 14.050781 5.574219 C 16.675781 3.773438 19.75 2.347656 22.824219 1.523438 C 25.902344 0.621094 29.277344 0.246094 32.5 0.472656 C 35.652344 0.621094 39.027344 1.371094 41.949219 2.496094 C 44.949219 3.699219 47.875 5.496094 50.277344 7.523438 C 52.75 9.621094 54.925781 12.171875 56.574219 14.949219 C 58.226562 17.648438 59.5 20.871094 60.175781 23.949219 C 60.851562 27.097656 61.074219 30.472656 60.699219 33.699219 C 60.324219 36.847656 59.425781 40.148438 58.074219 42.996094 C 56.726562 45.921875 54.851562 48.699219 52.675781 51.023438 C 50.425781 53.347656 47.726562 55.449219 44.949219 56.949219 C 42.101562 58.449219 38.875 59.496094 35.726562 60.023438 C 32.574219 60.546875 29.125 60.546875 25.976562 60.023438 C 22.824219 59.496094 19.601562 58.449219 16.824219 56.949219 C 13.976562 55.449219 11.277344 53.347656 9.101562 51.023438 C 6.851562 48.699219 4.976562 45.921875 3.625 42.996094 C 2.277344 40.074219 1.375 36.847656 1 33.621094 C 0.699219 30.472656 0.851562 27.097656 1.527344 23.949219 C 2.277344 20.871094 3.476562 17.648438 5.125 14.949219 C 6.777344 12.171875 9.027344 9.621094 11.425781 7.523438 C 13.902344 5.496094 16.824219 3.699219 19.75 2.496094 C 22.75 1.371094 26.050781 0.621094 29.277344 0.472656 C 32.425781 0.246094 35.800781 0.621094 38.875 1.523438 C 41.949219 2.347656 45.101562 3.773438 47.726562 5.574219 C 50.351562 7.371094 52.824219 9.699219 54.777344 12.246094 C 56.726562 14.796875 58.300781 17.796875 59.277344 20.871094 C 60.324219 23.871094 60.777344 27.472656 60.851562 30.398438 C 60.925781 32.949219 60.625 35.273438 60.027344 37.597656 C 59.5 39.921875 58.601562 42.246094 57.550781 44.347656 C 56.425781 46.523438 55 48.546875 53.425781 50.347656 C 51.851562 52.148438 50.050781 53.796875 48.101562 55.222656 C 46.074219 56.574219 43.902344 57.699219 41.726562 58.597656 C 39.476562 59.496094 37.074219 60.097656 34.675781 60.398438 C 32.277344 60.699219 29.800781 60.699219 27.476562 60.398438 C 25.074219 60.171875 22.675781 59.574219 20.425781 58.746094 C 18.175781 57.921875 15.925781 56.722656 13.976562 55.449219 C 12.027344 54.097656 10.152344 52.449219 8.5 50.648438 C 6.925781 48.847656 5.5 46.824219 4.375 44.722656 C 3.25 42.621094 2.351562 40.296875 1.75 37.972656 C 1.152344 35.648438 0.851562 30.773438 0.851562 30.773438 " clip-rule="nonzero"/></clipPath><clipPath id="83fe6bb523"><rect x="0" width="61" y="0" height="61"/></clipPath></defs><rect x="-150" width="1800" fill="#ffffff" y="-149.999993" height="1799.99992" fill-opacity="1"/><rect x="-150" width="1800" fill="#f1f1f1" y="-149.999993" height="1799.99992" fill-opacity="1"/><g transform="matrix(1, 0, 0, 1, 248, 144)"><g clip-path="url(#707860cf05)"><g fill="#3e2723" fill-opacity="1"><g transform="translate(2.988361, 948.34931)"><g><path d="M 74.5625 0 L 74.5625 -621.296875 L 320.421875 -621.296875 C 386.097656 -621.296875 443.492188 -608.28125 492.609375 -582.25 C 541.722656 -556.21875 579.890625 -519.828125 607.109375 -473.078125 C 634.328125 -426.328125 647.9375 -372.1875 647.9375 -310.65625 C 647.9375 -248.519531 634.328125 -194.226562 607.109375 -147.78125 C 579.890625 -101.332031 541.722656 -65.085938 492.609375 -39.046875 C 443.492188 -13.015625 386.097656 0 320.421875 0 Z M 215.6875 -129.59375 L 317.75 -129.59375 C 354.4375 -129.59375 386.6875 -137.132812 414.5 -152.21875 C 442.3125 -167.3125 464.054688 -188.46875 479.734375 -215.6875 C 495.410156 -242.90625 503.25 -274.5625 503.25 -310.65625 C 503.25 -347.34375 495.410156 -379.144531 479.734375 -406.0625 C 464.054688 -432.988281 442.160156 -453.992188 414.046875 -469.078125 C 385.941406 -484.171875 353.253906 -491.71875 315.984375 -491.71875 L 215.6875 -491.71875 Z M 215.6875 -129.59375 "/></g></g></g></g></g><g transform="matrix(1, 0, 0, 1, 543, 136)"><g clip-path="url(#fc8d846843)"><g fill="#3e2723" fill-opacity="1"><g transform="translate(2.774049, 954.514183)"><g><path d="M 74.578125 0 L 74.578125 -621.515625 L 320.53125 -621.515625 C 386.226562 -621.515625 443.640625 -608.492188 492.765625 -582.453125 C 541.898438 -556.410156 580.082031 -520.007812 607.3125 -473.25 C 634.539062 -426.488281 648.15625 -372.328125 648.15625 -310.765625 C 648.15625 -248.609375 634.539062 -194.296875 607.3125 -147.828125 C 580.082031 -101.367188 541.898438 -65.113281 492.765625 -39.0625 C 443.640625 -13.019531 386.226562 0 320.53125 0 Z M 215.75 -129.625 L 317.859375 -129.625 C 354.554688 -129.625 386.816406 -137.171875 414.640625 -152.265625 C 442.460938 -167.367188 464.21875 -188.53125 479.90625 -215.75 C 495.59375 -242.976562 503.4375 -274.648438 503.4375 -310.765625 C 503.4375 -347.460938 495.59375 -379.273438 479.90625 -406.203125 C 464.21875 -433.140625 442.316406 -454.15625 414.203125 -469.25 C 386.085938 -484.34375 353.382812 -491.890625 316.09375 -491.890625 L 215.75 -491.890625 Z M 215.75 -129.625 "/></g></g></g></g></g><g clip-path="url(#9097f8d7a4)"><g clip-path="url(#a7fc4e6c99)"><g transform="matrix(1, 0, 0, 1, 627, 598)"><g clip-path="url(#b16d022870)"><g clip-path="url(#7351b631ad)"><g clip-path="url(#3cf6e491d6)"><path fill="#f1f1f1" d="M 0.257812 363.019531 L 0.257812 0.503906 L 243.839844 0.503906 L 243.839844 363.019531 Z M 0.257812 363.019531 " fill-opacity="1" fill-rule="nonzero"/></g></g></g></g></g></g><g clip-path="url(#28324874f1)"><g transform="matrix(1, 0, 0, 1, 578, 452)"><g clip-path="url(#03ed0e637a)"><g clip-path="url(#4babf414c9)"><path fill="#f1f1f1" d="M 0.164062 0.3125 L 112.734375 0.3125 L 112.734375 653.734375 L 0.164062 653.734375 Z M 0.164062 0.3125 " fill-opacity="1" fill-rule="nonzero"/></g></g></g></g><g clip-path="url(#e0f5858a8f)"><g clip-path="url(#cd890cc99c)"><g transform="matrix(1, 0, 0, 1, 842, 664)"><g clip-path="url(#60b5355e7d)"><g clip-path="url(#7571454285)"><g clip-path="url(#3987affa72)"><rect x="-1172" width="2160" fill="#f1f1f1" height="2159.999904" y="-993.999985" fill-opacity="1"/></g></g></g></g></g></g><g clip-path="url(#0b336cbe95)"><g clip-path="url(#fdf5a714c2)"><g transform="matrix(1, 0, 0, 1, 845, 636)"><g clip-path="url(#83fe6bb523)"><g clip-path="url(#19e99f31c8)"><g clip-path="url(#7c0d31c619)"><rect x="-1175" width="2160" fill="#f1f1f1" height="2159.999904" y="-965.999985" fill-opacity="1"/></g></g></g></g></g></g><g fill="#3e2723" fill-opacity="1"><g transform="translate(529.371084, 783.349305)"><g><path d="M 79.71875 -43.75 C 79.71875 -34.675781 78.28125 -26.84375 75.40625 -20.25 C 72.539062 -13.65625 68.523438 -8.628906 63.359375 -5.171875 C 58.203125 -1.722656 52.289062 0 45.625 0 L 8.84375 0 L 8.84375 -83.5625 L 46.3125 -83.5625 C 53.6875 -83.5625 59.875 -81.832031 64.875 -78.375 C 69.882812 -74.925781 73.609375 -70.210938 76.046875 -64.234375 C 78.492188 -58.265625 79.71875 -51.4375 79.71875 -43.75 Z M 61.90625 -42.59375 C 61.90625 -60.28125 55.738281 -69.125 43.40625 -69.125 L 25.953125 -69.125 L 25.953125 -14.4375 L 43.296875 -14.4375 C 49.035156 -14.4375 53.570312 -16.957031 56.90625 -22 C 60.238281 -27.039062 61.90625 -33.90625 61.90625 -42.59375 Z M 61.90625 -42.59375 "/></g></g></g><g fill="#3e2723" fill-opacity="1"><g transform="translate(608.500116, 783.349305)"><g><path d="M 7.453125 0 L 7.453125 -83.5625 L 24.90625 -83.5625 L 24.90625 0 Z M 7.453125 0 "/></g></g></g><g fill="#3e2723" fill-opacity="1"><g transform="translate(635.962158, 783.349305)"><g><path d="M 82.625 -57.609375 L 65.171875 -57.609375 C 64.859375 -59.773438 63.847656 -61.925781 62.140625 -64.0625 C 60.429688 -66.195312 58.257812 -67.941406 55.625 -69.296875 C 52.988281 -70.660156 50.082031 -71.34375 46.90625 -71.34375 C 39.53125 -71.34375 33.6875 -68.722656 29.375 -63.484375 C 25.070312 -58.242188 22.921875 -50.851562 22.921875 -41.3125 C 22.921875 -32 25.015625 -24.878906 29.203125 -19.953125 C 33.398438 -15.023438 39.375 -12.5625 47.125 -12.5625 C 51.9375 -12.5625 56.222656 -14.148438 59.984375 -17.328125 C 63.753906 -20.515625 66.257812 -25.054688 67.5 -30.953125 L 48.0625 -30.953125 L 48.0625 -45.03125 L 82.96875 -45.03125 L 82.96875 0 L 71.34375 0 L 69.59375 -10.46875 C 65.789062 -5.8125 61.8125 -2.53125 57.65625 -0.625 C 53.507812 1.269531 48.835938 2.21875 43.640625 2.21875 C 36.265625 2.21875 29.664062 0.449219 23.84375 -3.078125 C 18.03125 -6.609375 13.457031 -11.671875 10.125 -18.265625 C 6.789062 -24.859375 5.125 -32.578125 5.125 -41.421875 C 5.125 -50.035156 6.734375 -57.695312 9.953125 -64.40625 C 13.171875 -71.125 17.863281 -76.363281 24.03125 -80.125 C 30.195312 -83.882812 37.546875 -85.765625 46.078125 -85.765625 C 52.828125 -85.765625 58.859375 -84.5625 64.171875 -82.15625 C 69.492188 -79.75 73.765625 -76.410156 76.984375 -72.140625 C 80.203125 -67.878906 82.082031 -63.035156 82.625 -57.609375 Z M 82.625 -57.609375 "/></g></g></g><g fill="#3e2723" fill-opacity="1"><g transform="translate(721.60773, 783.349305)"><g><path d="M 7.453125 0 L 7.453125 -83.5625 L 24.90625 -83.5625 L 24.90625 0 Z M 7.453125 0 "/></g></g></g><g fill="#3e2723" fill-opacity="1"><g transform="translate(749.069795, 783.349305)"><g><path d="M 44.34375 -68.78125 L 44.34375 0 L 26.875 0 L 26.875 -68.78125 L 1.625 -68.78125 L 1.625 -83.5625 L 69.59375 -83.5625 L 69.59375 -68.78125 Z M 44.34375 -68.78125 "/></g></g></g><g fill="#3e2723" fill-opacity="1"><g transform="translate(815.282054, 783.349305)"><g><path d="M 62.71875 0 L 57.375 -17.21875 L 26.53125 -17.21875 L 20.71875 0 L 2.328125 0 L 32.125 -83.5625 L 52.25 -83.5625 L 81.6875 0 Z M 52.484375 -31.65625 L 42.125 -64.703125 L 41.890625 -64.703125 L 31.1875 -31.65625 Z M 52.484375 -31.65625 "/></g></g></g><g fill="#3e2723" fill-opacity="1"><g transform="translate(894.411099, 783.349305)"><g><path d="M 67.84375 -15.125 L 67.84375 0 L 8.84375 0 L 8.84375 -83.5625 L 26.296875 -83.5625 L 26.296875 -15.125 Z M 67.84375 -15.125 "/></g></g></g><g fill="#3e2723" fill-opacity="1"><g transform="translate(529.371084, 884.599296)"><g><path d="M 79.71875 -43.75 C 79.71875 -34.675781 78.28125 -26.84375 75.40625 -20.25 C 72.539062 -13.65625 68.523438 -8.628906 63.359375 -5.171875 C 58.203125 -1.722656 52.289062 0 45.625 0 L 8.84375 0 L 8.84375 -83.5625 L 46.3125 -83.5625 C 53.6875 -83.5625 59.875 -81.832031 64.875 -78.375 C 69.882812 -74.925781 73.609375 -70.210938 76.046875 -64.234375 C 78.492188 -58.265625 79.71875 -51.4375 79.71875 -43.75 Z M 61.90625 -42.59375 C 61.90625 -60.28125 55.738281 -69.125 43.40625 -69.125 L 25.953125 -69.125 L 25.953125 -14.4375 L 43.296875 -14.4375 C 49.035156 -14.4375 53.570312 -16.957031 56.90625 -22 C 60.238281 -27.039062 61.90625 -33.90625 61.90625 -42.59375 Z M 61.90625 -42.59375 "/></g></g></g><g fill="#3e2723" fill-opacity="1"><g transform="translate(608.500116, 884.599296)"><g><path d="M 41.203125 -12.5625 C 52.367188 -12.5625 57.953125 -17.835938 57.953125 -28.390625 L 57.953125 -83.5625 L 75.765625 -83.5625 L 75.765625 -28.625 C 75.765625 -18.695312 72.851562 -11.070312 67.03125 -5.75 C 61.207031 -0.4375 52.671875 2.21875 41.421875 2.21875 C 31.109375 2.21875 23.019531 -0.378906 17.15625 -5.578125 C 11.300781 -10.785156 8.375 -18.429688 8.375 -28.515625 L 8.375 -83.5625 L 26.1875 -83.5625 L 26.1875 -28.859375 C 26.1875 -23.890625 27.523438 -19.929688 30.203125 -16.984375 C 32.878906 -14.035156 36.546875 -12.5625 41.203125 -12.5625 Z M 41.203125 -12.5625 "/></g></g></g><g fill="#3e2723" fill-opacity="1"><g transform="translate(687.629149, 884.599296)"><g><path d="M 45.265625 2.21875 C 37.503906 2.21875 30.597656 0.566406 24.546875 -2.734375 C 18.503906 -6.035156 13.753906 -10.984375 10.296875 -17.578125 C 6.847656 -24.171875 5.125 -32.238281 5.125 -41.78125 C 5.125 -51.164062 6.828125 -59.175781 10.234375 -65.8125 C 13.648438 -72.445312 18.382812 -77.429688 24.4375 -80.765625 C 30.488281 -84.097656 37.429688 -85.765625 45.265625 -85.765625 C 53.109375 -85.765625 60.050781 -84.054688 66.09375 -80.640625 C 72.144531 -77.234375 76.878906 -72.234375 80.296875 -65.640625 C 83.710938 -59.046875 85.421875 -51.09375 85.421875 -41.78125 C 85.421875 -32.3125 83.691406 -24.257812 80.234375 -17.625 C 76.785156 -11 72.015625 -6.035156 65.921875 -2.734375 C 59.835938 0.566406 52.953125 2.21875 45.265625 2.21875 Z M 67.96875 -41.78125 C 67.96875 -51.09375 65.890625 -58.285156 61.734375 -63.359375 C 57.585938 -68.441406 52.0625 -70.984375 45.15625 -70.984375 C 38.40625 -70.984375 32.953125 -68.441406 28.796875 -63.359375 C 24.648438 -58.285156 22.578125 -51.09375 22.578125 -41.78125 C 22.578125 -32.46875 24.628906 -25.269531 28.734375 -20.1875 C 32.847656 -15.101562 38.359375 -12.5625 45.265625 -12.5625 C 52.171875 -12.5625 57.679688 -15.101562 61.796875 -20.1875 C 65.910156 -25.269531 67.96875 -32.46875 67.96875 -41.78125 Z M 67.96875 -41.78125 "/></g></g></g></svg>